<?xml version="1.0" encoding="UTF-8"?>
<svg width="976px" height="136px" viewBox="0 0 976 136" version="1.1" xmlns="http://www.w3.org/2000/svg" xmlns:xlink="http://www.w3.org/1999/xlink">
    <title>Springload Logo Light</title>
    <g id="springload-logo-light" stroke="none" stroke-width="1" fill="none" fill-rule="evenodd">
        <g fill-rule="nonzero">
            <path d="M894,26.16 C872.68294,26.0658364 855.316681,43.2531081 855.19,64.57 L855.19,73.21 C854.66813,85.761487 844.555536,95.7868659 832,96.2 C822,96.2 818.13,92.52 814.23,84.65 C828.267286,77.7205849 835.317718,61.7250321 830.962405,46.6886284 C826.607092,31.6522247 812.099103,21.9010951 796.531385,23.5468052 C780.963668,25.1925153 768.815212,37.7615777 767.70012,53.3762744 C766.585027,68.9909711 776.82412,83.1587963 792,87 C797.39,106 811.66,117.09 832,117.09 C855.58,117.09 876.28,99.97 876.28,74.46 L876.28,70.53 C888.7,78.05 896.53,79.85 907.35,79.85 C942.35,79.85 966.35,49.85 975.12,26.41 L894,26.16 Z M787.25,55.64 C787.25,48.5983694 792.958369,42.89 800,42.89 C807.041631,42.89 812.75,48.5983694 812.75,55.64 C812.75,62.6816306 807.041631,68.39 800,68.39 C792.958369,68.39 787.25,62.6816306 787.25,55.64 Z" id="Shape" fill="#57BD84"></path>
            <path d="M24.21,76.53 C25.37,88.42 36.09,92.18 47,92.18 C57.15,92.18 65.7,88.12 65.7,79.57 C65.7,73.05 61.5,70.01 50.19,68.12 L31.89,64.79 C15.65,61.89 3.19,53.92 3.19,35.51 C3.19,15.94 20.87,3.19 44.5,3.19 C71.17,3.19 86.39,14.93 88.42,34.93 L64.79,34.93 C63.92,25.93 56.09,21.16 44.79,21.16 C34.5,21.16 27.68,26.23 27.68,33.63 C27.68,40.87 32.76,42.76 42.61,44.63 L62.33,48.4 C80.33,51.59 90.33,60.87 90.33,77.82 C90.33,97.82 71.78,110.150007 47.86,110.150007 C21.31,110.16 2.17,99.29 1.42108547e-14,76.53 L24.21,76.53 Z M124.21,134.22 L100,134.22 L100,34.22 L123.91,34.22 L123.91,45.37 C127.54,37.97 136.23,32.47 146.67,32.47 C166.67,32.47 179.14,48.7 179.14,71.31 C179.14,93.92 166.67,110.16 146.67,110.16 C136.38,110.16 127.97,104.79 124.2,97.4 L124.21,134.22 Z M123.78,72.91 C123.78,85.23 129.43,92.76 139.14,92.76 C149.29,92.76 154.8,84.76 154.8,71.31 C154.8,57.86 149.29,49.71 139.14,49.71 C129.43,49.71 123.78,57.25 123.78,69.71 L123.78,72.91 Z M241,56.09 C238.410815,55.6780144 235.791628,55.4840006 233.17,55.51 C222.17,55.51 213.75,62.04 213.75,75.95 L213.75,108.42 L189.58,108.42 L189.58,34.21 L213.5,34.21 L213.5,50 C217.27,39 225.24,33 235.67,33 C237.489235,32.9030911 239.310547,33.1472894 241.04,33.72 L241,56.09 Z M264.8,26.23 C257.12,26.23 250.89,20.73 250.89,13.04 C250.89,5.51 257.12,0.04 264.8,0.04 C272.48,0.04 278.57,5.55 278.57,13.04 C278.57,20.73 272.34,26.23 264.8,26.23 Z M252.63,108.42 L252.63,34.21 L276.83,34.21 L276.83,108.42 L252.63,108.42 Z M314.66,45.66 C318.29,38.12 326.4,32.47 337.56,32.47 C354.67,32.47 365.1,42.9 365.1,60.88 L365.1,108.42 L340.75,108.42 L340.75,66.67 C340.75,56.38 336.69,51.17 328.43,51.17 C320.9,51.17 315,56.09 315,68.7 L315,108.42 L290.8,108.42 L290.8,34.21 L314.71,34.21 L314.66,45.66 Z M430,92.91 C426.37,100.16 418.25,105.91 407.53,105.91 C387.24,105.91 374.77,90.55 374.77,69.1 C374.77,47.65 387.24,32.43 407.53,32.43 C418.25,32.43 426.66,38.22 430.29,45.33 L430.29,34.21 L454.2,34.21 L454.2,99.58 C454.2,124.36 438.11,135.96 414.34,135.96 C392.45,135.96 378.69,126.68 376.08,111.61 L400,111.61 C401.74,117.26 406.81,119.61 414.21,119.61 C423.63,119.61 430.01,114.82 430.01,103.23 L430,92.91 Z M430.57,67.69 C430.57,56.53 424.2,49.57 414.78,49.57 C404.78,49.57 399.12,56.96 399.12,69.14 C399.12,81.32 404.77,88.85 414.78,88.85 C424.2,88.85 430.57,81.85 430.57,70.44 L430.57,67.69 Z M468.15,108.42 L468.15,1.74 L492.36,1.74 L492.36,108.42 L468.15,108.42 Z M542.36,110.16 C519.03,110.16 502.79,95.52 502.79,71.31 C502.79,47.1 519,32.47 542.36,32.47 C565.72,32.47 581.79,47.11 581.79,71.31 C581.79,95.51 565.55,110.16 542.36,110.16 Z M542.36,92.76 C552.36,92.76 557.44,84.76 557.44,71.31 C557.44,57.86 552.36,49.86 542.36,49.86 C532.36,49.86 527.14,57.86 527.14,71.31 C527.14,84.76 532.36,92.76 542.36,92.76 Z M638.17,97.55 C634.4,105.81 625.7,110.16 614.4,110.16 C598.6,110.16 588.6,101.6 588.6,88.27 C588.6,72.76 601.06,67.11 616.14,65.51 L637.01,63.51 L637.01,60.51 C637.01,53.7 632.95,49.78 625.85,49.78 C619.18,49.78 615.41,53.7 614.98,59.21 L591.79,59.21 C593.38,42.54 606.28,32.54 626.72,32.54 C648.89,32.54 660.63,42.83 660.63,63.27 L660.63,87.26 C660.521683,94.3365305 660.95965,101.410868 661.94,108.42 L638.89,108.42 C638.450415,104.812652 638.210051,101.183812 638.17,97.55 Z M637,80.3 L637,76.67 L623.66,78.27 C617.14,78.99 612.5,80.73 612.5,86.68 C612.5,91.6 615.84,94.68 621.78,94.68 C629.76,94.65 637,89.72 637,80.3 Z M724,97.4 C720.23,104.79 711.54,110.16 701.25,110.16 C681.25,110.16 668.78,93.92 668.78,71.31 C668.78,48.7 681.24,32.47 701.25,32.47 C711.68,32.47 720.09,37.83 723.71,45.22 L723.71,1.74 L747.92,1.74 L747.92,108.42 L724,108.42 L724,97.4 Z M724.15,69.72 C724.15,57.25 718.49,49.72 708.78,49.72 C698.64,49.72 693.13,57.99 693.13,71.32 C693.13,84.65 698.64,92.77 708.78,92.77 C718.49,92.77 724.15,85.24 724.15,72.92 L724.15,69.72 Z" id="Combined-Shape" fill="#2F2F2F"></path>
        </g>
    </g>
</svg>
